<?xml version="1.0" encoding="UTF-8"?>
<svg width="504px" height="130px" viewBox="0 0 504 130" version="1.1" xmlns="http://www.w3.org/2000/svg" xmlns:xlink="http://www.w3.org/1999/xlink">
    <!-- Generator: Sketch 54.1 (76490) - https://sketchapp.com -->
    <title>灵犀logo1</title>
    <desc>Created with Sketch.</desc>
    <g id="灵犀logo1" stroke="none" stroke-width="1" fill="none" fill-rule="evenodd">
        <g id="灵犀logo" transform="translate(7.000000, 4.000000)">
            <polygon id="路径-2" fill="#53B4B3" points="0 31 2.92626183 48.9431515 26 81 26 54.2578259 18.9581208 51.9342173"></polygon>
            <polygon id="路径-3" fill="#53B4B3" points="39.1481839 94 29.0465218 86.0577442 29.0465218 53.9767675 102 0 84.0693611 44.5552495 98.4539628 73.1858483 77.2993804 66.3165478 61.984739 71.8002395"></polygon>
            <polygon id="路径-4" fill="#53B4B3" points="104.489719 0 87 43.8803018 118.659269 109.302734 115.497374 123 144.970694 123 144.970694 113.819462 127.452032 82.2797076 163.94616 56 167 15.3522103 138.503654 27"></polygon>
            <polygon id="路径-5" fill="#53B4B3" points="107.327776 122 85.7211241 120.975945 86.5765727 111.40924 82 103.439894 102.885338 82.0963911 111.12115 99.3145014 105.591354 106.295205 109 113.225374"></polygon>
            <path d="M47.9967832,55.9629962 C49.093081,52.3209278 50.3406596,49.9724806 51.739519,48.9176546 C53.1383785,47.8628287 55.8572349,47.5127055 59.8960883,47.8672852 C59.4728609,51.0872942 58.2770927,53.4394117 56.3087835,54.9236378 C54.3404744,56.4078638 51.5698076,56.7543166 47.9967832,55.9629962 Z" id="路径-6" fill="#FFFFFF"></path>
            <polygon id="路径-7" fill="#53B4B3" points="30 49 43 40.1104521 30.8975992 33"></polygon>
            <polygon id="路径-8" fill="#53B4B3" points="56.3616258 35 54.639866 32.9661636 50 29.9041712 52.5574533 22 59.878605 24.0359769 59.878605 29.2506037 61 31.6510152"></polygon>
        </g>
        <rect id="矩形" x="0" y="0" width="180" height="130"></rect>
        <path d="M208.01303,30.2208473 L242.224417,30.2208473 L242.224417,25.6471324 L206.366492,25.6471324 L206.366492,20.4635888 L248.017789,20.4635888 L248.017789,44.8567351 L205.390766,44.8567351 L205.390766,39.6122086 L242.224417,39.6122086 L242.224417,35.1604594 L208.01303,35.1604594 L208.01303,30.2208473 Z M212.159864,48.3937413 L217.160459,50.8940388 C215.087042,55.4067709 212.70871,59.2486914 209.964481,62.4807833 L205.451749,59.2486914 C208.01303,56.1995481 210.269396,52.601559 212.159864,48.3937413 Z M230.57669,46.3203239 C230.57669,48.8206214 230.393741,51.0769874 230.088827,53.1504048 C233.503867,61.3221088 242.163434,66.8105668 256.006545,69.5547957 L253.628213,74.9212879 C240.211983,71.8721446 231.613399,66.8715496 227.832461,59.7975372 C223.99054,66.6276182 215.818836,71.689196 203.378332,74.9212879 L201,69.5547957 C213.745419,66.6276182 221.368277,61.5660403 223.868575,54.4920279 C224.478403,52.5405762 224.783318,49.7963472 224.844301,46.3203239 L230.57669,46.3203239 Z M245.151595,48.088827 L250.213173,50.5281416 C248.017789,54.8579251 245.517492,58.5778799 242.590314,61.7489889 L237.955617,58.4559141 C240.760828,55.5287366 243.13916,52.1136961 245.151595,48.088827 Z M282.788434,57.8460855 C281.690742,59.3096743 280.532068,60.5293316 279.312411,61.5660403 L275.531473,58.2729655 C278.397668,56.0165995 280.532068,53.1504048 281.934674,49.6133986 L279.312411,50.1012615 L277.970788,45.6495123 C283.215314,44.8567351 287.971978,43.9419921 292.118813,42.9662662 L292.118813,47.1131011 C289.313601,47.9058784 286.264457,48.6986556 282.849417,49.43045 L286.569372,50.8330559 C286.203475,51.6258332 285.89856,52.4186104 285.593646,53.1504048 L295.04599,53.1504048 L295.04599,49.7353643 L300.778379,49.7353643 L300.778379,53.1504048 L317.304736,53.1504048 L317.304736,57.8460855 L300.778379,57.8460855 L300.778379,62.2978347 L320.536828,62.2978347 L320.536828,67.2374468 L300.778379,67.2374468 L300.778379,75.1042365 L295.04599,75.1042365 L295.04599,67.2374468 L275.592456,67.2374468 L275.592456,62.2978347 L295.04599,62.2978347 L295.04599,57.8460855 L282.788434,57.8460855 Z M312.304141,25.4032009 L276.141302,25.4032009 L276.141302,29.1841386 L312.304141,29.1841386 L312.304141,25.4032009 Z M276.141302,34.001785 L276.141302,39.6731915 C276.080319,52.8454905 273.701987,64.1883035 269.006306,73.7016306 L264.676523,69.7377443 C268.518443,61.9929204 270.469895,51.9917304 270.530878,39.6731915 L270.530878,20.4635888 L317.975548,20.4635888 L317.975548,34.001785 L276.141302,34.001785 Z M295.04599,35.2214423 L300.656414,35.2214423 L300.656414,48.2107927 L295.04599,48.2107927 L295.04599,35.2214423 Z M280.410102,35.2824252 C284.495954,35.9532367 288.459841,36.9289625 292.240778,38.2705856 L290.594241,42.2954547 C286.691337,40.9538317 282.605485,39.8561401 278.458651,39.1243457 L280.410102,35.2824252 Z M305.169146,43.1492148 C309.559912,43.8810092 313.828713,44.9787008 317.914565,46.4422896 L316.207045,50.8330559 C312.06021,49.1865185 307.730426,47.9058784 303.217694,46.9911354 L305.169146,43.1492148 Z M304.681283,42.173489 L303.217694,38.0266541 C307.791409,37.2338769 312.182175,36.1971681 316.450976,34.9775108 L317.731616,39.1853286 C313.76773,40.2830201 309.437946,41.3197289 304.681283,42.173489 Z" id="灵犀工业" fill="#6B6B6B" fill-rule="nonzero"></path>
        <path d="M201,92 L202.967611,92 L202.967611,108.210084 L213,108.210084 L213,110 L201,110 L201,92 Z M218,92 L220,92 L220,110 L218,110 L218,92 Z M226,92 L228.243478,92 L238.782609,106.647059 L238.86087,106.647059 L238.86087,92 L241,92 L241,110 L238.808696,110 L228.217391,95.2016807 L228.13913,95.2016807 L228.13913,110 L226,110 L226,92 Z M254.34891,92 C256.566978,92 258.336449,92.5377358 259.657321,93.6644205 C260.903427,94.7142857 261.676012,96.2250674 262,98.222372 L259.956386,98.222372 C259.682243,96.8396226 259.084112,95.7897574 258.161994,95.0471698 C257.190031,94.2533693 255.919003,93.8692722 254.34891,93.8692722 C252.404984,93.8692722 250.884735,94.5606469 249.738318,95.9690027 C248.5919,97.351752 248.043614,99.2210243 248.043614,101.576819 C248.043614,103.881402 248.5919,105.699461 249.688474,107.030997 C250.859813,108.439353 252.604361,109.156334 254.922118,109.156334 C255.894081,109.156334 256.816199,109.002695 257.713396,108.746631 C258.58567,108.490566 259.333333,108.132075 259.956386,107.722372 L259.956386,103.061995 L254.373832,103.061995 L254.373832,101.243935 L261.975078,101.243935 L261.975078,108.721024 C261.127726,109.438005 260.080997,109.975741 258.859813,110.385445 C257.563863,110.795148 256.193146,111 254.722741,111 C251.906542,111 249.713396,110.078167 248.168224,108.234501 C246.722741,106.518868 246,104.291105 246,101.576819 C246,98.8625337 246.697819,96.6347709 248.143302,94.8679245 C249.663551,92.9474394 251.732087,92 254.34891,92 Z M266.484848,92 L269.062201,92 L273.987241,99.0084034 L278.937799,92 L281.515152,92 L275.23764,100.647059 L282,110 L279.422648,110 L273.987241,102.285714 L268.577352,110 L266,110 L272.711324,100.647059 L266.484848,92 Z M286,92 L288,92 L288,110 L286,110 L286,92 Z M305,92 L307,92 L307,110 L305,110 L305,92 Z M312,92 L314.243478,92 L324.782609,106.647059 L324.86087,106.647059 L324.86087,92 L327,92 L327,110 L324.808696,110 L314.217391,95.2016807 L314.13913,95.2016807 L314.13913,110 L312,110 L312,92 Z M333,92 L339.486486,92 C342.349662,92 344.503378,92.8067227 345.972973,94.4705882 C347.315878,95.9831933 348,98.1764706 348,101 C348,103.773109 347.265203,105.966387 345.820946,107.529412 C344.300676,109.168067 342.121622,110 339.283784,110 L333,110 L333,92 Z M335,94 L335,108 L338.897436,108 C341.282051,108 343.076923,107.388112 344.282051,106.188811 C345.410256,105.013986 346,103.276224 346,101 C346,98.6503497 345.461538,96.9125874 344.410256,95.7867133 C343.282051,94.5874126 341.538462,94 339.128205,94 L335,94 Z M353,93 L355.014035,93 L355.014035,103.903846 C355.014035,105.634615 355.382456,106.945055 356.168421,107.835165 C356.978947,108.75 358.25614,109.21978 360,109.21978 C361.719298,109.21978 362.996491,108.75 363.831579,107.835165 C364.592982,106.945055 364.985965,105.634615 364.985965,103.903846 L364.985965,93 L367,93 L367,103.879121 C367,106.178571 366.410526,107.934066 365.25614,109.145604 C364.052632,110.381868 362.308772,111 360,111 C357.691228,111 355.947368,110.381868 354.768421,109.17033 C353.589474,107.934066 353,106.178571 353,103.879121 L353,93 Z M378.901408,92 C380.873239,92 382.450704,92.4609164 383.584507,93.4083558 C384.767606,94.3814016 385.433099,95.8409704 385.605634,97.7614555 L383.609155,97.7614555 C383.387324,96.4299191 382.894366,95.4568733 382.130282,94.8167116 C381.341549,94.1509434 380.232394,93.8436658 378.802817,93.8436658 C377.496479,93.8436658 376.485915,94.0485175 375.746479,94.509434 C374.908451,95.0215633 374.489437,95.7897574 374.489437,96.8396226 C374.489437,97.7614555 374.982394,98.5040431 375.992958,99.0673854 C376.43662,99.3234501 377.521127,99.7075472 379.221831,100.219677 C381.538732,100.936658 383.066901,101.525606 383.806338,101.986523 C385.260563,102.908356 386,104.188679 386,105.8531 C386,107.440701 385.383803,108.721024 384.151408,109.642857 C382.919014,110.539084 381.267606,111 379.172535,111 C377.102113,111 375.475352,110.539084 374.292254,109.617251 C372.911972,108.516173 372.147887,106.851752 372,104.598383 L373.996479,104.598383 C374.169014,106.185984 374.711268,107.363881 375.598592,108.106469 C376.411972,108.772237 377.59507,109.130728 379.172535,109.130728 C380.602113,109.130728 381.785211,108.849057 382.672535,108.285714 C383.559859,107.722372 384.003521,106.954178 384.003521,105.981132 C384.003521,104.828841 383.411972,103.932615 382.253521,103.292453 C381.760563,102.985175 380.503521,102.549865 378.53169,101.960916 C376.411972,101.295148 375.056338,100.783019 374.489437,100.475741 C373.133803,99.6563342 372.46831,98.4784367 372.46831,96.9420485 C372.46831,95.3544474 373.109155,94.0997305 374.415493,93.2291105 C375.573944,92.4097035 377.077465,92 378.901408,92 Z M390,92 L405,92 L405,93.789916 L398.538462,93.789916 L398.538462,110 L396.461538,110 L396.461538,93.789916 L390,93.789916 L390,92 Z M409,92 L416.525305,92 C418.260035,92 419.628272,92.4033613 420.630017,93.2352941 C421.656195,94.092437 422.193717,95.3529412 422.193717,97.0168067 C422.193717,98.0252101 421.924956,98.907563 421.387435,99.6890756 C420.801047,100.495798 420.019197,101 419.017452,101.252101 L419.017452,101.302521 C420.678883,101.680672 421.60733,102.764706 421.802792,104.579832 L422.071553,107.352941 C422.169284,108.462185 422.486911,109.344538 423,110 L420.82548,110 C420.434555,109.394958 420.190227,108.613445 420.116928,107.605042 L419.897033,105.210084 C419.799302,104.151261 419.43281,103.369748 418.797557,102.915966 C418.211169,102.462185 417.380454,102.260504 416.280977,102.260504 L411.00349,102.260504 L411.00349,110 L409,110 L409,92 Z M411,94 L411,101 L416.184,101 C417.432,101 418.416,100.656604 419.088,100.022642 C419.688,99.4150943 420,98.5698113 420,97.4603774 C420,96.2981132 419.688,95.4264151 419.112,94.8716981 C418.488,94.290566 417.504,94 416.184,94 L411,94 Z M428,92 L430,92 L430,110 L428,110 L428,92 Z M441.270928,92 L443.729072,92 L451,110 L448.697108,110 L446.730594,104.957983 L438.243531,104.957983 L436.277017,110 L434,110 L441.270928,92 Z M439,104 L446,104 L442.576087,95 L442.474638,95 L439,104 Z M455,92 L456.967611,92 L456.967611,108.210084 L467,108.210084 L467,110 L455,110 L455,92 Z" id="LINGXIINDUSTRIAL" fill="#6B6B6B" fill-rule="nonzero"></path>
        <path d="M331,22.876 L352.054,22.876 C356.41,22.876 359.908,23.932 362.482,26.044 C364.99,28.156 366.244,31.06 366.244,34.756 C366.244,37.396 365.518,39.706 364.132,41.62 C362.68,43.336 360.766,44.59 358.39,45.382 C361.492,45.91 363.868,47.23 365.584,49.21 C367.3,51.19 368.224,53.698 368.224,56.866 C368.224,61.486 366.574,64.918 363.34,67.162 C360.568,69.01 356.74,70 351.922,70 L331,70 L331,22.876 Z M336.412,27.43 L336.412,43.468 L350.734,43.468 C354.034,43.468 356.542,42.742 358.258,41.422 C359.974,40.036 360.898,37.99 360.898,35.284 C360.898,32.644 360.04,30.664 358.324,29.344 C356.608,28.024 354.1,27.43 350.8,27.43 L336.412,27.43 Z M336.412,47.956 L336.412,65.446 L351.46,65.446 C354.76,65.446 357.334,64.786 359.314,63.598 C361.624,62.146 362.812,59.836 362.812,56.8 C362.812,53.764 361.756,51.52 359.776,50.068 C357.862,48.616 355.09,47.956 351.46,47.956 L336.412,47.956 Z M375.682,22.876 L394.954,22.876 C405.778,22.876 411.19,27.496 411.19,36.736 C411.19,46.042 405.712,50.728 394.888,50.728 L381.094,50.728 L381.094,70 L375.682,70 L375.682,22.876 Z M381.094,27.562 L381.094,46.042 L394.624,46.042 C398.452,46.042 401.224,45.25 403.072,43.732 C404.854,42.214 405.778,39.904 405.778,36.736 C405.778,33.568 404.854,31.258 403.006,29.872 C401.158,28.288 398.386,27.562 394.624,27.562 L381.094,27.562 Z M418.054,22.876 L424.786,22.876 L442.342,63.07 L442.54,63.07 L460.03,22.876 L466.762,22.876 L466.762,70 L461.35,70 L461.35,32.512 L461.152,32.512 L444.85,70 L439.966,70 L423.664,32.512 L423.466,32.512 L423.466,70 L418.054,70 L418.054,22.876 Z" id="BPM" fill="#6B6B6B" fill-rule="nonzero"></path>
        <rect id="矩形" x="0" y="0" width="504" height="130"></rect>
    </g>
</svg>